<svg xmlns="http://www.w3.org/2000/svg" xmlns:xlink="http://www.w3.org/1999/xlink" width="368" height="429" viewBox="0 0 368 429">
    <defs>
        <radialGradient id="a" cy="11.246%" r="78.799%" fx="50%" fy="11.246%">
            <stop offset="0%" stop-color="#F7F7F7"/>
            <stop offset="100%" stop-color="#DCDCDC"/>
        </radialGradient>
        <path id="b" d="M132.92 167.133l3.947-2.39 5.705 1.195 3.48-1.195 7.932-3.202h14.221l8.601-3.493 7.854 3.493h11.392l11.698-3.493 10.754 7.89h26.548l24 3.613 26.647-5.752 49.353-24.024L301 13.788 146.052.172l-121 130.066L0 158.048l29.052 9.085 20-3.334 11 5.752h9.597l2.403 3.17h12.542l9.724-5.588h15.292l5.442 5.587 8-3.169z"/>
        <linearGradient id="c" x1="86.2%" x2="38.279%" y1="25.762%" y2="69.508%">
            <stop offset="0%" stop-opacity="0"/>
            <stop offset="100%" stop-opacity=".319"/>
        </linearGradient>
    </defs>
    <g fill="none" fill-rule="evenodd" transform="translate(0 -39)">
        <circle cx="184" cy="284" r="184" fill="url(#a)"/>
        <g transform="translate(11)">
            <mask id="d" fill="#fff">
                <use xlink:href="#b"/>
            </mask>
            <use fill="#BCBCBC" fill-opacity="0" xlink:href="#b"/>
            <path fill="url(#c)" d="M218.948 159.014c24.701-12.198 50.719-15.79 78.052-10.777-10.874-10.011-22.276-18.323-34.205-24.935-19.895-1.409-57.124 11.073-111.685 37.447" mask="url(#d)"/>
            <g fill-rule="nonzero" mask="url(#d)">
                <g transform="rotate(-137 130.735 65.748)">
                    <path fill="#007AFF" d="M57.736 90.32c.103-.996.82-1.819 1.79-2.05.969-.23 1.98.177 2.519 1.021l14.363 22.556a21.218 21.218 0 0 1 3.3 11.378v25.126a2.353 2.353 0 0 1-2.345 2.355c-.69 0-1.36-.306-1.815-.864L54.94 124.544a2.376 2.376 0 0 1-.518-1.732l3.313-32.492z"/>
                    <path fill="#005BBF" d="M21.971 90.32a2.352 2.352 0 0 0-1.79-2.05 2.345 2.345 0 0 0-2.518 1.021L3.299 111.847A21.218 21.218 0 0 0 0 123.225v25.126a2.353 2.353 0 0 0 2.344 2.355c.69 0 1.36-.306 1.816-.864l20.606-25.298c.394-.486.58-1.109.518-1.732L21.97 90.32z"/>
                    <path fill="#E2FCEC" d="M41.06.336a2.333 2.333 0 0 0-2.413 0c-1.002.605-24.58 15.178-24.58 46.76 0 12.752 3.154 46.682 7.339 78.922.607 4.677 4.602 8.205 9.288 8.205h18.32c4.686 0 8.68-3.528 9.288-8.205 4.184-32.24 7.34-66.17 7.34-78.922C65.641 15.514 42.062.941 41.06.336z"/>
                    <path fill="#B5E5C9" d="M39.854 134.223h-9.16c-4.686 0-8.681-3.528-9.288-8.205-4.185-32.24-7.34-66.17-7.34-78.922 0-31.582 23.579-46.155 24.581-46.76.37-.223.786-.335 1.203-.335h.004v134.222z"/>
                    <ellipse cx="39.854" cy="49.451" fill="#64CFFF" rx="14.066" ry="14.129"/>
                    <path fill="#007AFF" d="M39.854 150.706a2.349 2.349 0 0 1-2.345-2.355V91.837c0-1.3 1.049-2.355 2.345-2.355a2.349 2.349 0 0 1 2.344 2.355v56.514c0 1.3-1.048 2.355-2.344 2.355z"/>
                    <path fill="#67B0FF" d="M38.647.336c-.67.405-11.422 7.062-18.482 20.858h39.378C52.483 7.398 41.73.74 41.06.336a2.331 2.331 0 0 0-2.413 0z"/>
                    <path fill="#007AFF" d="M39.854 0c-.418 0-.836.112-1.207.336-.67.405-11.422 7.062-18.482 20.858h19.689V0z"/>
                    <path fill="#ADE8FF" d="M53.92 49.45c0-7.802-6.298-14.128-14.066-14.128V63.58c7.768 0 14.066-6.326 14.066-14.13z"/>
                    <path fill="#5C546A" d="M39.854 65.934c-9.048 0-16.41-7.394-16.41-16.483 0-9.09 7.362-16.484 16.41-16.484 9.047 0 16.41 7.395 16.41 16.484 0 9.089-7.363 16.483-16.41 16.483zm0-28.257c-6.463 0-11.722 5.282-11.722 11.774 0 6.492 5.259 11.774 11.722 11.774 6.463 0 11.721-5.282 11.721-11.774 0-6.492-5.258-11.774-11.721-11.774z"/>
                </g>
            </g>
        </g>
        <path stroke="#BEBEBE" stroke-linecap="round" stroke-width="2" d="M120 173.436l9-4.519 4.558 2.26 7.442-2.26 6.65-5.411 8.35 3.093 3.249-3.093L165 161.28l14.439.695 8.48-3.976 8.18 3.976H208l6-2.339L227.37 158l7.63 3.976 10.386 1.53L251.16 158l18.062 6.306"/>
        <path fill="#AAA" d="M67.156 275.537c.212-.212.45-.358.716-.438.265-.08.53-.119.795-.119.504 0 .935.16 1.293.477.358.319.537.703.537 1.154 0 .504-.146.915-.437 1.233-.955.928-1.91 1.883-2.864 2.864a71.617 71.617 0 0 0-2.745 2.984 58.132 58.132 0 0 1 3.103 3.858 57.97 57.97 0 0 1 2.744 4.098c.212.716.133 1.299-.238 1.75-.372.45-.849.676-1.432.676-.292 0-.597-.066-.915-.199a2.468 2.468 0 0 1-.875-.636 58.484 58.484 0 0 0-4.853-6.643 64.235 64.235 0 0 0-2.288 3.023 111.568 111.568 0 0 0-2.287 3.341c-.504.584-1.087.875-1.75.875-.53 0-.982-.165-1.353-.497-.371-.331-.557-.736-.557-1.213 0-.345.133-.73.398-1.154a46.533 46.533 0 0 1 2.526-3.68 175.61 175.61 0 0 1 2.804-3.6 105.261 105.261 0 0 0-1.71-1.75 105.257 105.257 0 0 1-1.71-1.75l-1.711-1.83h.04c-.292-.265-.49-.53-.597-.795a1.954 1.954 0 0 1-.16-.716c0-.451.18-.829.538-1.134.358-.305.802-.457 1.333-.457.212 0 .45.046.716.139.265.093.543.245.835.457l1.87 1.91 3.023 3.063a60.9 60.9 0 0 1 2.526-2.685c.862-.862 1.757-1.73 2.685-2.606zM144.038 297.67c.251-.255.534-.43.849-.526.314-.096.629-.144.943-.144.598 0 1.109.192 1.533.575.425.383.637.847.637 1.39 0 .607-.173 1.102-.519 1.485a174.303 174.303 0 0 0-3.396 3.45 85.777 85.777 0 0 0-3.255 3.594 69.841 69.841 0 0 1 3.68 4.648 69.918 69.918 0 0 1 3.254 4.935c.252.863.157 1.565-.283 2.108-.44.543-1.006.815-1.698.815a2.78 2.78 0 0 1-1.085-.24 2.93 2.93 0 0 1-1.038-.766 70.41 70.41 0 0 0-5.754-8.002 77.276 77.276 0 0 0-2.713 3.641c-.896 1.278-1.8 2.62-2.712 4.025-.597.703-1.29 1.054-2.075 1.054-.63 0-1.164-.2-1.604-.598-.44-.4-.66-.887-.66-1.462 0-.415.157-.878.471-1.39a56.096 56.096 0 0 1 2.995-4.432 211.131 211.131 0 0 1 3.326-4.336 125.89 125.89 0 0 0-2.028-2.109 125.897 125.897 0 0 1-2.029-2.108l-2.028-2.204h.047c-.346-.32-.582-.639-.707-.958a2.386 2.386 0 0 1-.189-.863c0-.543.212-.998.637-1.366.424-.367.951-.55 1.58-.55.252 0 .535.055.849.167.315.112.645.296.99.551l2.218 2.3 3.584 3.69a72.902 72.902 0 0 1 2.996-3.235 152.05 152.05 0 0 1 3.184-3.138z"/>
        <path fill="#AAA" fill-rule="nonzero" d="M70.737 338.435a2 2 0 0 1-1.474-3.718c18.885-7.486 34.081-3.361 44.992 12.284a2 2 0 1 1-3.28 2.288c-9.824-14.085-23.038-17.672-40.238-10.854z"/>
    </g>
</svg>
