<svg xmlns="http://www.w3.org/2000/svg" width="345" height="325" viewBox="0 0 345 325">
    <defs>
        <radialGradient id="a" cx="34.655%" cy="28.653%" r="65.085%" fx="34.655%" fy="28.653%">
            <stop offset="0%" stop-color="#C86DD7"/>
            <stop offset="100%" stop-color="#3023AE"/>
        </radialGradient>
        <radialGradient id="b" cx="59.559%" cy="24.512%" r="62.891%" fx="59.559%" fy="24.512%">
            <stop offset="0%" stop-color="#00ADEF"/>
            <stop offset="54.773%" stop-color="#0E81CA"/>
            <stop offset="100%" stop-color="#0032BC"/>
        </radialGradient>
    </defs>
    <g fill="none" fill-rule="evenodd">
        <g transform="translate(207 20)">
            <circle cx="53.5" cy="33.5" r="33.5" fill="url(#a)"/>
            <path fill="#E7BFFA" d="M20.01 34.004c-.03.42.009.821.017 1.148-8.209 4.365-12.892 8.661-12.05 11.803C9.62 53.09 31.71 52.5 57.316 45.64c25.607-6.862 45.032-17.397 43.388-23.532-.877-3.275-7.581-4.634-17.536-4.145-.187-.28-.353-.755-.612-1.133 15.34-1.326 26.17.52 27.518 5.547 2.144 8.002-20.552 21.036-50.693 29.112-30.14 8.076-56.313 8.136-58.457.134-1.282-4.785 6.32-11.37 19.085-17.619z"/>
        </g>
        <g transform="rotate(33 -204.85 510.945)">
            <path fill="#FFF" d="M28.125 50h-6.25L25 7.812z"/>
            <circle cx="25" cy="20.313" r="3.125" fill="#FFF"/>
            <path fill="#D8DCE1" d="M49.204 15.472c-.005-.024-.02-.043-.026-.065a.767.767 0 0 0-.132-.255.735.735 0 0 0-.075-.086.767.767 0 0 0-.153-.11c-.022-.013-.037-.033-.06-.043l-15.19-6.836C33.298 3.579 29.564 0 25 0s-8.298 3.58-8.568 8.077l-15.19 6.835c-.023.01-.038.031-.06.043a.77.77 0 0 0-.154.11.735.735 0 0 0-.074.087.757.757 0 0 0-.132.254c-.007.023-.02.042-.026.066l-.78 3.906a.783.783 0 0 0 .765.934H49.22a.781.781 0 0 0 .766-.934l-.781-3.906z"/>
            <path fill="#B9BBC1" d="M25 0c-4.564 0-8.298 3.58-8.568 8.077l-15.19 6.835c-.023.01-.038.031-.06.043a.77.77 0 0 0-.154.11.735.735 0 0 0-.074.087.757.757 0 0 0-.132.254c-.007.023-.02.042-.026.066l-.78 3.906a.783.783 0 0 0 .765.934H25V0z"/>
            <path fill="#5C546A" d="M25 0c-4.564 0-8.298 3.58-8.568 8.077h17.136C33.298 3.579 29.564 0 25 0z"/>
            <path fill="#B9BBC1" d="M.015 19.378a.783.783 0 0 0 .766.934H49.22a.781.781 0 0 0 .766-.934l-.75-3.753H.764l-.75 3.753z"/>
            <path fill="#8B8996" d="M25 15.625H.766l-.75 3.753a.783.783 0 0 0 .765.934H25v-4.687zM33.568 8.077C33.298 3.579 29.564 0 25 0v8.077h8.568z"/>
        </g>
        <circle cx="258" cy="158" r="3" fill="#E8E8E8"/>
        <circle cx="199" cy="45" r="4" fill="#E8E8E8"/>
        <circle cx="178" cy="2" r="2" fill="#E8E8E8"/>
        <circle cx="210" cy="226" r="3" fill="#9CDBF4"/>
        <circle cx="292.5" cy="140.5" r="5.5" fill="#CBCBCB"/>
        <circle cx="339.5" cy="163.5" r="5.5" fill="#CBCBCB"/>
        <circle cx="328.5" cy="20.5" r="5.5" fill="#E7BFFA"/>
        <circle cx="307" cy="3" r="3" fill="#E7BFFA"/>
        <circle cx="229.5" cy="284.5" r="8.5" fill="#BCE9FB"/>
        <circle cx="64" cy="130" r="19" fill="#9BCEF6"/>
        <circle cx="112" cy="104" r="3" fill="#E3E3E3"/>
        <g fill-rule="nonzero" transform="rotate(-59 125.394 -70.218)">
            <path fill="#007AFF" d="M43.302 67.59a1.762 1.762 0 0 1 1.343-1.534 1.76 1.76 0 0 1 1.888.764L57.306 83.7a15.853 15.853 0 0 1 2.474 8.515v18.803a1.761 1.761 0 0 1-1.758 1.762c-.517 0-1.02-.229-1.361-.646L41.206 93.2a1.775 1.775 0 0 1-.388-1.295l2.484-24.315z"/>
            <path fill="#005BBF" d="M16.478 67.59a1.762 1.762 0 0 0-1.342-1.534 1.76 1.76 0 0 0-1.889.764L2.474 83.7A15.853 15.853 0 0 0 0 92.215v18.803a1.761 1.761 0 0 0 1.758 1.762c.517 0 1.02-.229 1.362-.646L18.575 93.2c.295-.363.434-.83.388-1.295L16.478 67.59z"/>
            <path fill="#E2FCEC" d="M30.795.252a1.753 1.753 0 0 0-1.81 0C28.233.704 10.55 11.609 10.55 35.244c0 9.543 2.366 34.934 5.505 59.06.454 3.501 3.45 6.14 6.965 6.14h13.74c3.515 0 6.511-2.639 6.966-6.14 3.139-24.126 5.505-49.517 5.505-59.06C49.231 11.61 31.547.704 30.795.252z"/>
            <path fill="#B5E5C9" d="M29.89 100.445h-6.87c-3.514 0-6.51-2.64-6.965-6.14-3.14-24.127-5.505-49.518-5.505-59.06C10.55 11.608 28.233.704 28.985.251c.278-.167.59-.25.902-.252h.004v100.445z"/>
            <ellipse cx="29.89" cy="37.006" fill="#64CFFF" rx="10.549" ry="10.573"/>
            <path fill="#007AFF" d="M29.89 112.78a1.76 1.76 0 0 1-1.758-1.762V68.726a1.76 1.76 0 0 1 1.758-1.763 1.76 1.76 0 0 1 1.759 1.763v42.292a1.76 1.76 0 0 1-1.759 1.762z"/>
            <path fill="#67B0FF" d="M28.985.252c-.502.302-8.567 5.284-13.861 15.608h29.533C39.362 5.536 31.298.554 30.795.252a1.752 1.752 0 0 0-1.81 0z"/>
            <path fill="#007AFF" d="M29.89 0a1.75 1.75 0 0 0-.905.252c-.502.302-8.567 5.284-13.861 15.608H29.89V0z"/>
            <path fill="#ADE8FF" d="M40.44 37.006c0-5.84-4.723-10.573-10.55-10.573V47.58c5.827 0 10.55-4.733 10.55-10.573z"/>
            <path fill="#5C546A" d="M29.89 49.342c-6.785 0-12.307-5.534-12.307-12.336 0-6.802 5.522-12.335 12.307-12.335 6.786 0 12.308 5.533 12.308 12.335 0 6.802-5.522 12.336-12.308 12.336zm0-21.147c-4.847 0-8.79 3.953-8.79 8.811 0 4.858 3.943 8.811 8.79 8.811 4.848 0 8.792-3.953 8.792-8.81 0-4.859-3.944-8.812-8.792-8.812z"/>
        </g>
        <g transform="translate(0 140)">
            <circle cx="92.5" cy="92.5" r="92.5" fill="url(#b)"/>
            <path fill="#003A86" fill-opacity=".428" d="M41.455 132.554c-11.468-5.871-18.398-21.43-9.199-26.858 9.2-5.428 17.387 3.01 22.546 13.429 5.159 10.418 14.382 2.807 19.541 8.118 5.16 5.31-21.42 11.182-32.888 5.31z"/>
            <circle cx="158.5" cy="101.5" r="5.5" fill="#003A86" fill-opacity=".428"/>
            <path fill="#003A86" fill-opacity=".428" d="M128.649 146c3.598 0 9.351-4.544 9.351-6.677s-5.753-1.046-9.351-1.046c-3.598 0-9.649 1.59-9.649 3.723s6.051 4 9.649 4z"/>
        </g>
    </g>
</svg>
