<svg xmlns="http://www.w3.org/2000/svg" width="325" height="866" viewBox="0 0 325 866">
    <defs>
        <linearGradient id="a" x1="50%" x2="50%" y1="0%" y2="100%">
            <stop offset="0%" stop-color="#DDF7FF"/>
            <stop offset="100%" stop-color="#B9EBFF"/>
        </linearGradient>
    </defs>
    <g fill="none" fill-rule="evenodd">
        <path fill="url(#a)" d="M154.034 120h6c21.82 245.198 40.446 393.267 55.88 444.207 23.15 76.411 60.207 72.003 98.373 144.057 38.167 72.054-35.1 157.065-146.263 156.82C56.861 864.84-35.45 782.696 14 702.32c49.451-80.376 75.99-62.587 98.931-138.113 15.295-50.35 28.996-198.42 41.103-444.207z"/>
        <g fill-rule="nonzero" transform="translate(127)">
            <path fill="#007AFF" d="M43.302 67.59a1.762 1.762 0 0 1 1.343-1.534 1.76 1.76 0 0 1 1.888.764L57.306 83.7a15.853 15.853 0 0 1 2.474 8.515v18.803a1.761 1.761 0 0 1-1.758 1.762c-.517 0-1.02-.229-1.361-.646L41.206 93.2a1.775 1.775 0 0 1-.388-1.295l2.484-24.315z"/>
            <path fill="#005BBF" d="M16.478 67.59a1.762 1.762 0 0 0-1.342-1.534 1.76 1.76 0 0 0-1.889.764L2.474 83.7A15.853 15.853 0 0 0 0 92.215v18.803a1.761 1.761 0 0 0 1.758 1.762c.517 0 1.02-.229 1.362-.646L18.575 93.2c.295-.363.434-.83.388-1.295L16.478 67.59z"/>
            <path fill="#E2FCEC" d="M30.795.252a1.753 1.753 0 0 0-1.81 0C28.233.704 10.55 11.609 10.55 35.244c0 9.543 2.366 34.934 5.505 59.06.454 3.501 3.45 6.14 6.965 6.14h13.74c3.515 0 6.511-2.639 6.966-6.14 3.139-24.126 5.505-49.517 5.505-59.06C49.231 11.61 31.547.704 30.795.252z"/>
            <path fill="#B5E5C9" d="M29.89 100.445h-6.87c-3.514 0-6.51-2.64-6.965-6.14-3.14-24.127-5.505-49.518-5.505-59.06C10.55 11.608 28.233.704 28.985.251c.278-.167.59-.25.902-.252h.004v100.445z"/>
            <ellipse cx="29.89" cy="37.006" fill="#64CFFF" rx="10.549" ry="10.573"/>
            <path fill="#007AFF" d="M29.89 112.78a1.76 1.76 0 0 1-1.758-1.762V68.726a1.76 1.76 0 0 1 1.758-1.763 1.76 1.76 0 0 1 1.759 1.763v42.292a1.76 1.76 0 0 1-1.759 1.762z"/>
            <path fill="#67B0FF" d="M28.985.252c-.502.302-8.567 5.284-13.861 15.608h29.533C39.362 5.536 31.298.554 30.795.252a1.752 1.752 0 0 0-1.81 0z"/>
            <path fill="#007AFF" d="M29.89 0a1.75 1.75 0 0 0-.905.252c-.502.302-8.567 5.284-13.861 15.608H29.89V0z"/>
            <path fill="#ADE8FF" d="M40.44 37.006c0-5.84-4.723-10.573-10.55-10.573V47.58c5.827 0 10.55-4.733 10.55-10.573z"/>
        </g>
        <path fill="#5C546A" fill-rule="nonzero" d="M156.89 49.342c-6.785 0-12.307-5.534-12.307-12.336 0-6.802 5.522-12.335 12.307-12.335 6.786 0 12.308 5.533 12.308 12.335 0 6.802-5.522 12.336-12.308 12.336zm0-21.147c-4.847 0-8.79 3.953-8.79 8.811 0 4.858 3.943 8.811 8.79 8.811 4.848 0 8.792-3.953 8.792-8.81 0-4.859-3.944-8.812-8.792-8.812z"/>
    </g>
</svg>
